# xmcd
#
# Track frame offsets: 
#        150
#        10586
#        24581
#        37821
#        51022
#        71807
#        91933
#        110843
#        128297
#        145040
#        163835
#        182795
#        198834
#        210601
#
# Disc length: 3069 seconds
#
# Revision: 0
# Processed by: cddbd v1.5.2PL0 Copyright (c) Steve Scherf et al.
# Submitted via: ExactAudioCopy v0.99pb3
#
DISCID=b50bfb0e
DTITLE=Whiskey Gentry, the - Live from Georgia [DigiCD]
DYEAR=2014
DGENRE=Bluegrass
TTITLE0=White House Blues [live]
TTITLE1=Dixie [live]
TTITLE2=Dime Short of a Dollar Bill [live]
TTITLE3=Colly Davis [live]
TTITLE4=Holly Grove [live]
TTITLE5=Guitars, Whiskey, Guns and Knives [live]
TTITLE6=Particles [live]
TTITLE7=Oh Me [live]
TTITLE8=One Night in New York [live]
TTITLE9=Eula Mae [live]
TTITLE10=Comrade [live]
TTITLE11=Here's Your Song [live]
TTITLE12=Mary [live]
TTITLE13=Creep [live]
EXTD=
EXTT0=
EXTT1=
EXTT2=
EXTT3=
EXTT4=
EXTT5=
EXTT6=
EXTT7=
EXTT8=
EXTT9=
EXTT10=
EXTT11=
EXTT12=
EXTT13=
PLAYORDER=
